<svg xmlns="http://www.w3.org/2000/svg" height="512" width="512"><path d="M507 433.02l-13.043-7.532c.297-2.75.45-5.523.45-8.293 0-2.773-.153-5.547-.45-8.297l13.043-7.53a9.995 9.995 0 003.66-13.661l-20.683-35.82c-2.762-4.782-8.875-6.422-13.66-3.66l-13.04 7.527a75.462 75.462 0 00-14.37-8.309v-15.047c0-5.523-4.477-10-10-10h-41.364c-5.52 0-10 4.477-10 10v15.047a75.431 75.431 0 00-14.367 8.309l-13.043-7.527c-4.785-2.762-10.899-1.122-13.66 3.66l-20.684 35.82a9.999 9.999 0 00-.996 7.586 9.982 9.982 0 004.656 6.074l13.043 7.528a77.467 77.467 0 00-.449 8.296c0 2.774.152 5.543.45 8.297l-13.044 7.532a10.006 10.006 0 00-3.66 13.66l20.684 35.82c2.761 4.781 8.875 6.422 13.66 3.66l13.043-7.531a75.242 75.242 0 0014.367 8.312v15.047c0 5.52 4.48 10 10 10h41.363c5.524 0 10-4.48 10-10v-15.047a75.272 75.272 0 0014.371-8.312l13.04 7.531c4.785 2.762 10.898 1.121 13.66-3.66l20.683-35.82a10.008 10.008 0 001-7.59 10.016 10.016 0 00-4.66-6.07zm-33.77-27.32a56.614 56.614 0 011.176 11.495c0 3.867-.394 7.735-1.176 11.492a9.995 9.995 0 004.79 10.696l10.32 5.957-10.684 18.5-10.332-5.965a9.992 9.992 0 00-11.664 1.207c-5.82 5.203-12.508 9.07-19.879 11.492a9.999 9.999 0 00-6.875 9.5v11.914h-21.363v-11.914a9.997 9.997 0 00-6.879-9.5c-7.367-2.422-14.055-6.289-19.875-11.492a9.997 9.997 0 00-11.664-1.207l-10.336 5.965-10.68-18.5 10.32-5.957a10 10 0 004.79-10.696 56.633 56.633 0 01-1.176-11.492c0-3.867.394-7.734 1.176-11.496a10.003 10.003 0 00-4.79-10.695l-10.32-5.957 10.68-18.5 10.336 5.965a9.992 9.992 0 0011.664-1.207c5.82-5.203 12.508-9.067 19.875-11.489a10.005 10.005 0 006.879-9.5v-11.918h21.363v11.918c0 4.317 2.774 8.149 6.875 9.5 7.371 2.422 14.059 6.286 19.88 11.489a9.992 9.992 0 0011.663 1.207l10.332-5.965 10.684 18.5-10.32 5.957a9.998 9.998 0 00-4.79 10.695zm0 0" data-original="#000000" class="active-path" data-old_color="#000000" fill="#FA7268"/><path d="M418.223 378.867c-19.848 0-35.996 16.149-35.996 36 0 19.848 16.148 35.996 35.996 35.996 19.851 0 36-16.148 36-35.996 0-19.851-16.149-36-36-36zm0 51.996c-8.82 0-16-7.175-16-15.996 0-8.824 7.18-16 16-16 8.824 0 16 7.176 16 16 0 8.82-7.176 15.996-16 15.996zm-92.961-128.465h108.715c43.007 0 78-34.988 78-77.996 0-35.422-23.832-65.906-57.047-75.132a72.17 72.17 0 001.53-14.836c0-39.954-32.503-72.457-72.456-72.457-18.637 0-36.242 7.168-49.473 19.527-9.93-31.168-32.816-57.402-63.152-71.149-5.035-2.277-10.957-.05-13.238 4.98-2.278 5.032-.047 10.958 4.98 13.235 30.8 13.957 52.34 43.434 56.211 76.926a9.997 9.997 0 008.004 8.664 9.996 9.996 0 0010.687-4.988c9.243-16.774 26.86-27.195 45.98-27.195 28.923 0 52.454 23.53 52.454 52.457a52.184 52.184 0 01-3.52 18.886 10 10 0 008.121 13.531c29.028 3.532 50.915 28.274 50.915 57.551 0 31.98-26.016 57.996-57.996 57.996H325.262v-22.902c0-5.52-4.477-9.996-10-9.996h-13.797a116.56 116.56 0 00-6.88-16.586l9.767-9.766c3.902-3.906 3.902-10.238 0-14.14l-37.63-37.63a10 10 0 00-14.14 0l-9.766 9.767a116.702 116.702 0 00-16.582-6.88v-13.8c0-5.52-4.48-10-10-10h-53.21c-5.524 0-10 4.48-10 10v13.8a116.483 116.483 0 00-16.586 6.88l-9.766-9.766a10 10 0 00-14.14 0l-37.626 37.629c-3.906 3.902-3.906 10.234 0 14.14l9.766 9.766a116.108 116.108 0 00-6.879 16.586h-13.8c-5.524 0-10 4.477-10 9.996v7.363C32.976 251.594 20 226.83 20 200.391c0-45.223 36.79-82.012 82.012-82.012 4.293 0 8.718.36 13.148 1.078a9.998 9.998 0 007.824-2.05 10.014 10.014 0 003.75-7.165c2.356-35.613 24.063-66.91 56.645-81.676 5.027-2.277 7.258-8.203 4.98-13.234-2.28-5.027-8.203-7.258-13.234-4.98-36.121 16.367-61.16 49.578-67.2 88.207a97.099 97.099 0 00-5.913-.18C45.762 98.379 0 144.14 0 200.39c0 19.632 5.594 38.699 16.172 55.136a102.233 102.233 0 0037.82 34.871v22.309c0 5.523 4.477 10 10 10H77.79a117.397 117.397 0 006.879 16.586l-9.762 9.766c-3.906 3.902-3.906 10.234 0 14.14l37.625 37.625c3.907 3.903 10.235 3.906 14.14 0l9.767-9.762a117.397 117.397 0 0016.585 6.88v13.796c0 5.524 4.477 10 10 10h53.211c5.52 0 10-4.476 10-10V397.94a117.542 117.542 0 0016.582-6.879l9.766 9.762c3.906 3.903 10.234 3.906 14.145 0l37.625-37.625c3.902-3.906 3.902-10.234 0-14.14l-9.766-9.766a116.483 116.483 0 006.879-16.586h13.8c5.52 0 10-4.477 10-10v-10.309zm-19.996.309H293.96c-4.57 0-8.563 3.105-9.691 7.535a96.953 96.953 0 01-10.657 25.7 9.999 9.999 0 001.524 12.183l8 8.004-23.485 23.484-8-8.004a10.005 10.005 0 00-12.183-1.523 97.049 97.049 0 01-25.7 10.66 10 10 0 00-7.535 9.691v11.301h-33.21v-11.3a10 10 0 00-7.536-9.692 96.995 96.995 0 01-25.699-10.66 10.004 10.004 0 00-12.184 1.523l-8.003 8.004-23.485-23.484 8.004-8.004a10.003 10.003 0 001.52-12.184 97.006 97.006 0 01-10.657-25.699 10.004 10.004 0 00-9.691-7.535h-11.3v-33.21h11.3a10 10 0 009.691-7.536 97.06 97.06 0 0110.657-25.7 10.004 10.004 0 00-1.52-12.183l-8.004-8 23.485-23.484 8 8.004a10.004 10.004 0 0012.187 1.52 97.006 97.006 0 0125.7-10.657 10.003 10.003 0 007.534-9.691v-11.301h33.207v11.3c0 4.57 3.106 8.563 7.536 9.692a96.953 96.953 0 0125.699 10.656 10.01 10.01 0 0012.187-1.52l8-8.003 23.485 23.484-8.004 8a10.004 10.004 0 00-1.52 12.184 97.114 97.114 0 0110.657 25.699 10 10 0 009.69 7.535h11.302v33.211zm0 0" data-original="#000000" class="active-path" data-old_color="#000000" fill="#FA7268"/><path d="M189.629 216.828c-38.2 0-69.274 31.078-69.274 69.274 0 38.199 31.075 69.273 69.274 69.273 38.195 0 69.27-31.074 69.27-69.273 0-38.196-31.075-69.274-69.27-69.274zm0 118.55c-27.172 0-49.274-22.105-49.274-49.276 0-27.168 22.102-49.27 49.274-49.27 27.168 0 49.273 22.102 49.273 49.27 0 27.171-22.105 49.277-49.273 49.277zM223.246 20c2.633 0 5.211-1.07 7.07-2.93 1.86-1.86 2.93-4.441 2.93-7.07s-1.07-5.21-2.93-7.07a10.073 10.073 0 00-7.07-2.93 10.07 10.07 0 00-7.066 2.93 10.063 10.063 0 00-2.934 7.07c0 2.629 1.07 5.21 2.934 7.07a10.07 10.07 0 007.066 2.93zm0 0" data-original="#000000" class="active-path" data-old_color="#000000" fill="#FA7268"/></svg>