<svg xmlns="http://www.w3.org/2000/svg" version="1.1" id="Capa_1" x="0" y="0" viewBox="0 0 64 64" xml:space="preserve" width="512" height="512"><g id="Lifebuoy_1_"><path id="Lifebuoy" d="M32 0C14.356 0 0 14.355 0 32s14.356 32 32 32 32-14.355 32-32S49.645 0 32 0zm0 45.762c-7.589 0-13.763-6.173-13.763-13.762S24.411 18.238 32 18.238c7.588 0 13.762 6.174 13.762 13.762S39.588 45.762 32 45.762zm15.389-17.135h13.993a.994.994 0 00.411-.093C61.925 29.672 62 30.827 62 32c0 1.146-.071 2.275-.196 3.388a.992.992 0 00-.421-.1H47.411A15.77 15.77 0 0047.762 32c0-1.158-.134-2.285-.373-3.373zm14.124-1.973c-.045-.006-.084-.026-.131-.026H46.799a15.815 15.815 0 00-9.567-9.478V2.476l-.002-.01c12.317 2.175 22.06 11.886 24.283 24.188zM35.29 2.184c-.029.094-.059.189-.059.292v14.098A15.79 15.79 0 0032 16.238c-1.179 0-2.323.14-3.429.387V2.476c0-.095-.029-.18-.054-.267A30.131 30.131 0 0132 2c1.112 0 2.209.066 3.29.184zm-8.719.317v14.72a15.813 15.813 0 00-9.372 9.41c-.006 0-.011-.003-.018-.003H2.491c2.22-12.223 11.865-21.884 24.08-24.127zM2.19 35.334A30.091 30.091 0 012 32c0-1.156.072-2.295.2-3.417.073.017.142.044.22.044h14.19A15.753 15.753 0 0016.238 32c0 1.128.124 2.227.351 3.288H2.42c-.082 0-.154.028-.23.046zm.286 1.954h14.693a15.816 15.816 0 009.402 9.49v14.661c0 .022.011.04.012.061C14.335 59.257 4.668 49.555 2.476 37.288zm26.025 24.501a.997.997 0 00.071-.35V47.375a15.75 15.75 0 003.429.387c1.108 0 2.188-.118 3.231-.336V61.44c0 .133.029.258.076.374A30.14 30.14 0 0132 62c-1.184 0-2.35-.077-3.499-.211zm8.711-.251c.003-.034.02-.064.02-.098V46.85a15.81 15.81 0 009.598-9.562h14.553c.052 0 .096-.022.146-.03-2.194 12.349-11.962 22.105-24.317 24.28z" data-original="#000000" class="active-path" data-old_color="#000000" fill="#FA7268"/></g></svg>