<svg xmlns="http://www.w3.org/2000/svg" version="1.1" id="Layer_1" x="0" y="0" xml:space="preserve" width="512" height="512"><path d="M451.267 101.4H434.2V58.733c0-5.12-3.413-8.533-8.533-8.533H408.6V7.533c0-5.12-3.413-8.533-8.533-8.533H109.933c-5.12 0-8.533 3.413-8.533 8.533V50.2H84.333c-5.12 0-8.533 3.413-8.533 8.533V101.4H58.733c-5.12 0-8.533 3.413-8.533 8.533v392.533c0 5.12 3.413 8.533 8.533 8.533h392.533c5.12 0 8.533-3.413 8.533-8.533V109.933c.001-5.12-3.412-8.533-8.532-8.533zm-332.8-85.333h273.067V50.2H118.467V16.067zm-25.6 51.2h324.267V101.4H92.867V67.267zm349.866 426.666H67.267V118.467h375.467v375.466z" data-original="#000000" class="active-path" data-old_color="#000000" fill="#FA7268" transform="translate(1 1)"/><path d="M355.693 186.733l-153.6 25.6c-3.413.853-6.827 4.267-6.827 8.533v130.26c-9.076-6.736-21.05-10.793-34.133-10.793-28.16 0-51.2 18.773-51.2 42.667 0 23.893 23.04 42.667 51.2 42.667 28.16 0 51.2-18.773 51.2-42.667V270.929l136.533-22.756v60.286c-9.076-6.736-21.05-10.793-34.133-10.793-28.16 0-51.2 18.773-51.2 42.667 0 23.893 23.04 42.667 51.2 42.667s51.2-18.773 51.2-42.667V195.266c0-2.56-1.707-5.12-3.413-6.827-1.707-1.706-4.267-1.706-6.827-1.706zM161.133 408.6C142.36 408.6 127 397.507 127 383c0-14.507 15.36-25.6 34.133-25.6 18.773 0 34.133 11.093 34.133 25.6.001 14.507-15.359 25.6-34.133 25.6zm51.2-180.907l136.533-23.04v25.6l-136.533 23.04v-25.6zm102.4 138.24c-18.773 0-34.133-11.093-34.133-25.6 0-14.507 15.36-25.6 34.133-25.6 18.773 0 34.133 11.093 34.133 25.6.001 14.507-15.359 25.6-34.133 25.6z" data-original="#000000" class="active-path" data-old_color="#000000" fill="#FA7268" transform="translate(1 1)"/></svg>