<svg xmlns="http://www.w3.org/2000/svg" viewBox="0 0 443.979 443.979" width="512" height="512"><path d="M372.72 0H71.259c-14.48 0-26.261 11.781-26.261 26.261v391.457c0 14.48 11.78 26.261 26.261 26.261H372.72c14.48 0 26.261-11.781 26.261-26.261V26.261C398.981 11.781 387.2 0 372.72 0zm11.261 417.718c0 6.209-5.052 11.261-11.261 11.261H71.259c-6.209 0-11.261-5.052-11.261-11.261V26.261C59.998 20.052 65.05 15 71.259 15H372.72c6.209 0 11.261 5.052 11.261 11.261v391.457z" data-original="#000000" class="active-path" data-old_color="#000000" fill="#FA7268"/><path d="M368.982 47.908H74.997a5 5 0 00-5 5v338.163a5 5 0 005 5h293.985a5 5 0 005-5V52.908a5 5 0 00-5-5zm-5 338.163H79.997V57.908h283.985v328.163zm-141.99 20.407c-1.98 0-3.91.8-5.31 2.2a7.56 7.56 0 00-2.19 5.3c0 1.97.8 3.91 2.19 5.3a7.55 7.55 0 005.31 2.2c1.97 0 3.91-.8 5.3-2.2 1.4-1.39 2.2-3.33 2.2-5.3 0-1.97-.8-3.91-2.2-5.3-1.4-1.4-3.33-2.2-5.3-2.2zm0-369.23c1.31 0 2.6-.53 3.53-1.46.93-.93 1.47-2.22 1.47-3.54 0-1.32-.54-2.6-1.47-3.54a5.03 5.03 0 00-3.53-1.46c-1.32 0-2.61.53-3.54 1.46-.93.93-1.46 2.22-1.46 3.54 0 1.32.53 2.61 1.46 3.54.93.93 2.22 1.46 3.54 1.46z" data-original="#000000" class="active-path" data-old_color="#000000" fill="#FA7268"/></svg>