<?xml version="1.0"?>
<svg xmlns="http://www.w3.org/2000/svg" height="512px" viewBox="0 0 512 512" width="512px" class=""><g><path d="m507 433.019531-13.042969-7.53125c.296875-2.75.449219-5.523437.449219-8.292969 0-2.773437-.152344-5.546874-.449219-8.296874l13.042969-7.53125c2.296875-1.324219 3.972656-3.507813 4.660156-6.070313s.324219-5.292969-1-7.589844l-20.683594-35.820312c-2.761718-4.78125-8.875-6.421875-13.660156-3.660157l-13.039062 7.527344c-4.484375-3.296875-9.285156-6.074218-14.371094-8.308594v-15.046874c0-5.523438-4.476562-10-10-10h-41.363281c-5.519531 0-10 4.476562-10 10v15.046874c-5.082031 2.234376-9.886719 5.011719-14.367188 8.308594l-13.042969-7.527344c-4.785156-2.761718-10.898437-1.121093-13.660156 3.660157l-20.683594 35.820312c-1.324218 2.296875-1.683593 5.027344-.996093 7.585938.683593 2.566406 2.359375 4.746093 4.65625 6.074219l13.042969 7.527343c-.296876 2.753907-.449219 5.527344-.449219 8.296875 0 2.773438.152343 5.542969.449219 8.296875l-13.042969 7.53125c-2.296875 1.324219-3.972657 3.507813-4.65625 6.070313-.6875 2.5625-.328125 5.292968.996093 7.589844l20.683594 35.820312c2.761719 4.78125 8.875 6.421875 13.660156 3.660156l13.042969-7.53125c4.480469 3.300782 9.285157 6.078125 14.367188 8.3125v15.046875c0 5.519531 4.480469 10 10 10h41.363281c5.523438 0 10-4.480469 10-10v-15.046875c5.085938-2.234375 9.886719-5.011718 14.371094-8.3125l13.039062 7.53125c4.785156 2.761719 10.898438 1.121094 13.660156-3.660156l20.683594-35.820312c1.324219-2.296876 1.6875-5.027344 1-7.589844-.6875-2.558594-2.363281-4.742188-4.660156-6.070313zm-33.769531-27.320312c.78125 3.757812 1.175781 7.628906 1.175781 11.496093 0 3.867188-.394531 7.734376-1.175781 11.492188-.878907 4.226562 1.050781 8.539062 4.789062 10.695312l10.320313 5.957032-10.683594 18.5-10.332031-5.964844c-3.738281-2.160156-8.445313-1.675781-11.664063 1.207031-5.820312 5.203125-12.507812 9.070313-19.878906 11.492188-4.101562 1.347656-6.875 5.179687-6.875 9.5v11.914062h-21.363281v-11.914062c0-4.320313-2.773438-8.152344-6.878907-9.5-7.367187-2.421875-14.054687-6.289063-19.875-11.492188-3.21875-2.878906-7.921874-3.367187-11.664062-1.207031l-10.335938 5.964844-10.679687-18.5 10.320313-5.957032c3.734374-2.15625 5.667968-6.46875 4.789062-10.695312-.78125-3.761719-1.175781-7.628906-1.175781-11.492188 0-3.867187.394531-7.734374 1.175781-11.496093.878906-4.226563-1.054688-8.535157-4.789062-10.695313l-10.320313-5.957031 10.679687-18.5 10.335938 5.964844c3.738281 2.160156 8.445312 1.675781 11.664062-1.207031 5.820313-5.203126 12.507813-9.066407 19.875-11.488282 4.105469-1.351562 6.878907-5.183594 6.878907-9.5v-11.917968h21.363281v11.917968c0 4.316406 2.773438 8.148438 6.875 9.5 7.371094 2.421875 14.058594 6.285156 19.878906 11.488282 3.21875 2.882812 7.925782 3.367187 11.664063 1.207031l10.332031-5.964844 10.683594 18.5-10.320313 5.957031c-3.738281 2.160156-5.667969 6.46875-4.789062 10.695313zm0 0" data-original="#000000" class="active-path" data-old_color="#000000" fill="#FA7268"/><path d="m418.222656 378.867188c-19.847656 0-35.996094 16.148437-35.996094 36 0 19.847656 16.148438 35.996093 35.996094 35.996093 19.851563 0 36-16.148437 36-35.996093 0-19.851563-16.148437-36-36-36zm0 51.996093c-8.820312 0-16-7.175781-16-15.996093 0-8.824219 7.179688-16 16-16 8.824219 0 16 7.175781 16 16 0 8.820312-7.175781 15.996093-16 15.996093zm0 0" data-original="#000000" class="active-path" data-old_color="#000000" fill="#FA7268"/><path d="m325.261719 302.398438h108.714843c43.007813 0 78-34.988282 78-77.996094 0-35.421875-23.832031-65.90625-57.046874-75.132813 1.019531-4.859375 1.53125-9.820312 1.53125-14.835937 0-39.953125-32.503907-72.457032-72.457032-72.457032-18.636718 0-36.242187 7.167969-49.472656 19.527344-9.929688-31.167968-32.816406-57.402344-63.152344-71.148437-5.035156-2.277344-10.957031-.050781-13.238281 4.980469-2.277344 5.03125-.046875 10.957031 4.980469 13.234374 30.800781 13.957032 52.339844 43.433594 56.210937 76.925782.5 4.324218 3.734375 7.824218 8.003907 8.664062 4.265624.839844 8.589843-1.175781 10.6875-4.988281 9.242187-16.773437 26.859374-27.195313 45.980468-27.195313 28.921875 0 52.453125 23.53125 52.453125 52.457032 0 6.488281-1.183593 12.84375-3.519531 18.886718-1.109375 2.878907-.832031 6.105469.753906 8.75 1.589844 2.644532 4.304688 4.410157 7.367188 4.78125 29.027344 3.53125 50.914062 28.273438 50.914062 57.550782 0 31.980468-26.015625 57.996094-57.996094 57.996094h-108.714843v-22.902344c0-5.519532-4.476563-9.996094-10-9.996094h-13.796875c-1.863282-5.695312-4.160156-11.238281-6.878906-16.585938l9.765624-9.765624c3.902344-3.90625 3.902344-10.238282 0-14.140626l-37.628906-37.628906c-1.875-1.875-4.417968-2.929687-7.070312-2.929687s-5.195313 1.054687-7.070313 2.929687l-9.765625 9.765625c-5.347656-2.71875-10.890625-5.015625-16.582031-6.878906v-13.800781c0-5.519532-4.480469-10-10-10h-53.210937c-5.523438 0-10 4.480468-10 10v13.800781c-5.691407 1.859375-11.234376 4.160156-16.585938 6.878906l-9.765625-9.765625c-1.875-1.875-4.417969-2.929687-7.070313-2.929687-2.652343 0-5.195312 1.054687-7.070312 2.929687l-37.625 37.628906c-3.90625 3.902344-3.90625 10.234376 0 14.140626l9.765625 9.765624c-2.71875 5.347657-5.019531 10.890626-6.878906 16.585938h-13.800781c-5.523438 0-10 4.476562-10 9.996094v7.363281c-21.015626-15.265625-33.992188-40.03125-33.992188-66.46875 0-45.222656 36.789062-82.011719 82.011719-82.011719 4.292969 0 8.71875.359375 13.148437 1.078125 2.785156.449219 5.621094-.296875 7.824219-2.050781 2.199219-1.753906 3.5625-4.351562 3.75-7.164062 2.355469-35.613282 24.0625-66.910157 56.644531-81.675782 5.027344-2.277344 7.257813-8.203125 4.980469-13.234375-2.28125-5.027343-8.203125-7.257812-13.234375-4.980469-36.121094 16.367188-61.160156 49.578126-67.199219 88.207032-1.984375-.121094-3.957031-.179688-5.914062-.179688-56.25 0-102.011719 45.761719-102.011719 102.011719 0 19.632813 5.59375 38.699219 16.171875 55.136719 9.460937 14.703125 22.480469 26.675781 37.820313 34.871094v22.308593c0 5.523438 4.476562 10 10 10h13.796874c1.863282 5.691407 4.164063 11.234375 6.878907 16.585938l-9.761719 9.765625c-3.90625 3.902344-3.90625 10.234375 0 14.140625l37.625 37.625c3.90625 3.902343 10.234375 3.90625 14.140625 0l9.765625-9.761719c5.351562 2.714844 10.894531 5.015625 16.585938 6.878906v13.796875c0 5.523438 4.476562 10 10 10h53.210937c5.519531 0 10-4.476562 10-10v-13.796875c5.6875-1.863281 11.230469-4.164062 16.582031-6.878906l9.765625 9.761719c3.90625 3.902343 10.234375 3.90625 14.144531 0l37.625-37.625c3.902344-3.90625 3.902344-10.234375 0-14.140625l-9.765624-9.765625c2.71875-5.351563 5.019531-10.894531 6.878906-16.585938h13.800781c5.519531 0 10-4.476562 10-10v-10.308593zm-19.996094.308593h-11.304687c-4.570313 0-8.5625 3.105469-9.691407 7.535157-2.292969 9.023437-5.878906 17.667968-10.65625 25.699218-2.339843 3.933594-1.710937 8.949219 1.523438 12.183594l8 8.003906-23.484375 23.484375-8-8.003906c-3.234375-3.234375-8.253906-3.859375-12.183594-1.523437-8.039062 4.78125-16.683594 8.367187-25.699219 10.660156-4.433593 1.128906-7.535156 5.117187-7.535156 9.691406v11.300781h-33.210937v-11.300781c0-4.574219-3.105469-8.566406-7.535157-9.691406-9.015625-2.292969-17.664062-5.878906-25.699219-10.660156-3.933593-2.335938-8.949218-1.710938-12.183593 1.523437l-8.003907 8.003906-23.484374-23.484375 8.003906-8.003906c3.230468-3.234375 3.859375-8.25 1.519531-12.183594-4.777344-8.03125-8.363281-16.679687-10.65625-25.699218-1.128906-4.429688-5.117187-7.535157-9.691406-7.535157h-11.300781v-33.210937h11.300781c4.574219 0 8.5625-3.101563 9.691406-7.535156 2.292969-9.019532 5.878906-17.664063 10.65625-25.699219 2.339844-3.929688 1.710937-8.949219-1.519531-12.183594l-8.003906-8 23.484374-23.484375 8 8.003906c3.238282 3.234375 8.253907 3.859375 12.1875 1.519532 8.03125-4.777344 16.679688-8.363282 25.699219-10.65625 4.433594-1.128907 7.535157-5.121094 7.535157-9.691407v-11.300781h33.207031v11.300781c0 4.570313 3.105469 8.5625 7.535156 9.691407 9.023437 2.292968 17.667969 5.878906 25.699219 10.65625 3.933594 2.339843 8.949218 1.710937 12.1875-1.519532l8-8.003906 23.484375 23.484375-8.003907 8c-3.230468 3.234375-3.859374 8.253906-1.519531 12.183594 4.777344 8.035156 8.363281 16.683593 10.65625 25.699219 1.128907 4.433593 5.117188 7.535156 9.691407 7.535156h11.300781v33.210937zm0 0" data-original="#000000" class="active-path" data-old_color="#000000" fill="#FA7268"/><path d="m189.628906 216.828125c-38.199218 0-69.273437 31.078125-69.273437 69.273437 0 38.199219 31.074219 69.273438 69.273437 69.273438 38.195313 0 69.269532-31.074219 69.269532-69.273438 0-38.195312-31.074219-69.273437-69.269532-69.273437zm0 118.550781c-27.171875 0-49.273437-22.105468-49.273437-49.277344 0-27.167968 22.101562-49.269531 49.273437-49.269531 27.167969 0 49.273438 22.101563 49.273438 49.269531 0 27.171876-22.105469 49.277344-49.273438 49.277344zm0 0" data-original="#000000" class="active-path" data-old_color="#000000" fill="#FA7268"/><path d="m223.246094 20c2.632812 0 5.210937-1.070312 7.070312-2.929688 1.859375-1.859374 2.929688-4.441406 2.929688-7.070312s-1.070313-5.210938-2.929688-7.070312c-1.859375-1.859376-4.4375-2.929688-7.070312-2.929688-2.628906 0-5.207032 1.070312-7.066406 2.929688-1.859376 1.859374-2.933594 4.429687-2.933594 7.070312 0 2.628906 1.070312 5.210938 2.933594 7.070312 1.859374 1.859376 4.4375 2.929688 7.066406 2.929688zm0 0" data-original="#000000" class="active-path" data-old_color="#000000" fill="#FA7268"/></g> </svg>
