<?xml version="1.0"?>
<svg xmlns="http://www.w3.org/2000/svg" xmlns:xlink="http://www.w3.org/1999/xlink" version="1.1" id="Capa_1" x="0px" y="0px" viewBox="0 0 64 64" style="enable-background:new 0 0 64 64;" xml:space="preserve" width="512px" height="512px"><g><g id="Lifebuoy_1_">
	<path id="Lifebuoy" d="M32,0C14.356,0,0,14.355,0,32s14.356,32,32,32s32-14.355,32-32S49.645,0,32,0z M32,45.762   c-7.589,0-13.763-6.173-13.763-13.762S24.411,18.238,32,18.238c7.588,0,13.762,6.174,13.762,13.762S39.588,45.762,32,45.762z    M47.389,28.627h13.993c0.147,0,0.285-0.036,0.411-0.093C61.925,29.672,62,30.827,62,32c0,1.146-0.071,2.275-0.196,3.388   c-0.129-0.06-0.269-0.1-0.421-0.1H47.411c0.226-1.062,0.351-2.16,0.351-3.288C47.762,30.842,47.628,29.715,47.389,28.627z    M61.513,26.654c-0.045-0.006-0.084-0.026-0.131-0.026H46.799c-1.609-4.417-5.131-7.91-9.567-9.478V2.476   c0-0.004-0.002-0.007-0.002-0.01C49.547,4.641,59.29,14.352,61.513,26.654z M35.29,2.184c-0.029,0.094-0.059,0.189-0.059,0.292   v14.098c-1.044-0.218-2.124-0.336-3.231-0.336c-1.179,0-2.323,0.14-3.429,0.387V2.476c0-0.095-0.029-0.18-0.054-0.267   C29.661,2.076,30.822,2,32,2C33.112,2,34.209,2.066,35.29,2.184z M26.571,2.501v14.72c-4.345,1.602-7.788,5.056-9.372,9.41   c-0.006,0-0.011-0.003-0.018-0.003H2.491C4.711,14.405,14.356,4.744,26.571,2.501z M2.19,35.334C2.068,34.239,2,33.127,2,32   c0-1.156,0.072-2.295,0.2-3.417c0.073,0.017,0.142,0.044,0.22,0.044h14.19c-0.238,1.088-0.372,2.214-0.372,3.373   c0,1.128,0.124,2.227,0.351,3.288H2.42C2.338,35.288,2.266,35.316,2.19,35.334z M2.476,37.288h14.693   c1.571,4.391,5.03,7.878,9.402,9.49v14.661c0,0.022,0.011,0.04,0.012,0.061C14.335,59.257,4.668,49.555,2.476,37.288z    M28.501,61.789c0.041-0.11,0.071-0.226,0.071-0.35V47.375c1.105,0.246,2.25,0.387,3.429,0.387c1.108,0,2.188-0.118,3.231-0.336   v14.014c0,0.133,0.029,0.258,0.076,0.374C34.22,61.934,33.118,62,32,62C30.816,62,29.65,61.923,28.501,61.789z M37.212,61.538   c0.003-0.034,0.02-0.064,0.02-0.098V46.85c4.465-1.578,8.004-5.105,9.598-9.562h14.553c0.052,0,0.096-0.022,0.146-0.03   C59.335,49.607,49.567,59.363,37.212,61.538z" data-original="#000000" class="active-path" data-old_color="#000000" fill="#FA7268"/>
</g></g> </svg>
